<?xml version="1.0" encoding="UTF-8" standalone="no"?>
<!-- Created with Inkscape (http://www.inkscape.org/) -->

<svg
   version="1.1"
   id="svg9"
   width="300"
   height="200"
   viewBox="0 0 300 200"
   xmlns="http://www.w3.org/2000/svg"
   xmlns:svg="http://www.w3.org/2000/svg">
  <defs
     id="defs13" />
  <g
     id="layer2"
     style="display:inline"
     transform="translate(-84.215741,59.697234)" />
  <g
     id="layer1"
     transform="translate(2.5245463,11.991596)"
     style="display:inline" />
  <g
     id="g15"
     style="display:inline">
    <g
       id="g11902"
       transform="translate(0,-1.2663627)">
      <rect
         style="display:inline;fill:#ffffff;fill-opacity:1;stroke:none;stroke-width:0;stroke-linecap:round;stroke-dasharray:none"
         id="rect4907"
         width="9.9817572"
         height="67.503746"
         x="35.270283"
         y="126.5976" />
      <rect
         style="fill:#ffffff;fill-opacity:1;stroke:none;stroke-width:7.64401;stroke-linecap:round;stroke-dasharray:none;stroke-opacity:1"
         id="rect3001"
         width="255.54073"
         height="4.5"
         x="35.270287"
         y="189.60133"
         rx="0"
         ry="0" />
      <rect
         style="fill:#ffffff;fill-opacity:1;stroke:none;stroke-width:0;stroke-linecap:round;stroke-dasharray:none"
         id="rect1213"
         width="168.57506"
         height="31.571571"
         x="-86.661537"
         y="93.837288"
         ry="0"
         transform="rotate(-45)" />
      <rect
         style="fill:#ffffff;fill-opacity:1;stroke:none;stroke-width:0;stroke-linecap:round;stroke-dasharray:none"
         id="rect1325"
         width="66.083824"
         height="28.914646"
         x="91.412735"
         y="169.42397"
         transform="rotate(-45)" />
      <rect
         style="fill:#ffffff;fill-opacity:1;stroke:none;stroke-width:0;stroke-linecap:round;stroke-dasharray:none"
         id="rect1327"
         width="115.86449"
         height="10.676809"
         x="98.246758"
         y="-81.901093"
         transform="rotate(45)" />
      <rect
         style="fill:#ffffff;fill-opacity:1;stroke:none;stroke-width:0;stroke-linecap:round;stroke-dasharray:none"
         id="rect1329"
         width="78.253784"
         height="11.089385"
         x="178.05826"
         y="-157.51826"
         transform="rotate(45)" />
      <rect
         style="fill:#ffffff;fill-opacity:1;stroke:none;stroke-width:0;stroke-linecap:round;stroke-dasharray:none"
         id="rect4905"
         width="4.5"
         height="14.925832"
         x="286.311"
         y="179.17551" />
      <text
         xml:space="preserve"
         style="font-size:34.6667px;display:inline;fill:#ffffff;fill-opacity:1;stroke:#ffbf00;stroke-width:0;stroke-dasharray:none;stroke-opacity:1"
         x="165.14003"
         y="133.74329"
         id="text123"><tspan
           id="tspan121"
           x="165.14003"
           y="133.74329"
           style="font-style:normal;font-variant:normal;font-weight:bold;font-stretch:normal;font-size:34.6667px;font-family:Montserrat;-inkscape-font-specification:'Montserrat Bold';text-align:center;text-anchor:middle;fill:#ffffff;fill-opacity:1;stroke:none;stroke-width:0;stroke-dasharray:none;stroke-opacity:1"
           dy="10">ALPA HOME</tspan><tspan
           x="165.14003"
           y="177.39622"
           id="tspan125"
           style="font-style:normal;font-variant:normal;font-weight:bold;font-stretch:normal;font-size:34.6667px;font-family:Montserrat;-inkscape-font-specification:'Montserrat Bold';text-align:center;text-anchor:middle;fill:#ffffff;fill-opacity:1;stroke:none;stroke-width:0;stroke-dasharray:none;stroke-opacity:1">DESIGN</tspan></text>
    </g>
    <text
       xml:space="preserve"
       style="font-size:42.6667px;display:none;fill:#ffffff;fill-opacity:1;stroke:#ffffff;stroke-width:6;stroke-dasharray:none;stroke-opacity:1"
       x="137.75478"
       y="137.82378"
       id="text3565"><tspan
         id="tspan3561"
         x="0"
         y="0"
         style="font-style:normal;font-variant:normal;font-weight:normal;font-stretch:normal;font-size:42.6667px;font-family:'Fredoka One';-inkscape-font-specification:'Fredoka One';text-align:center;text-anchor:middle;fill:#ffffff;fill-opacity:1;stroke:#ffffff;stroke-width:6;stroke-dasharray:none;stroke-opacity:1"
         dy="10">ALPA HOME</tspan><tspan
         x="0"
         y="0"
         id="tspan3563"
         style="font-style:normal;font-variant:normal;font-weight:normal;font-stretch:normal;font-size:42.6667px;font-family:'Fredoka One';-inkscape-font-specification:'Fredoka One';text-align:center;text-anchor:middle;fill:#ffffff;fill-opacity:1;stroke:#ffffff;stroke-width:6;stroke-dasharray:none;stroke-opacity:1">DESIGN</tspan></text>
    <path
       id="path3725"
       style="color:#000000;font-size:42.6667px;-inkscape-font-specification:'Fredoka One';display:none;fill:#ffffff;stroke:none;stroke-width:6;-inkscape-stroke:none"
       d="m 182.61914,113.16602 c -2.36846,0 -4.70117,0.49042 -6.9043,1.43945 -2.17616,0.93743 -4.13796,2.24778 -5.82031,3.89648 -0.8887,0.87093 -1.67549,1.84867 -2.36719,2.91407 v -1.07032 c 0,-1.1384 -0.0345,-2.04623 -0.33398,-3.06445 l -0.0352,-0.11719 -0.043,-0.11328 c -0.29395,-0.76428 -0.80275,-1.55817 -1.55664,-2.14453 -0.70533,-0.5486 -1.39385,-0.81277 -2.10351,-1.02148 -0.92657,-0.27252 -1.81325,-0.33594 -2.81055,-0.33594 -1.03178,0 -1.99279,0.0938 -2.95117,0.39648 -1.10971,0.35044 -2.28106,1.19349 -2.89453,2.34375 l -2.35352,4.41211 h 1.53125 v 5.34961 h -5.30664 v -5.70508 c 0,-1.1384 -0.0365,-2.04623 -0.33594,-3.06445 l -0.0215,-0.0742 -0.0254,-0.0742 c -0.46401,-1.32061 -1.60834,-2.41119 -2.77149,-2.92969 -1.16313,-0.5185 -2.34172,-0.65429 -3.60156,-0.65429 -1.12116,0 -2.14371,0.0952 -3.17773,0.45312 -1.0307,0.35678 -2.17431,1.10229 -2.80469,2.3086 -0.33033,0.62238 -0.60164,1.27558 -0.73047,2.04883 l -0.0176,0.11132 -0.0117,0.11133 c -0.0456,0.50078 -0.0547,1.02492 -0.0547,1.72266 v 23.67969 c 0,1.15278 0.0491,2.10136 0.42187,3.17773 0.44362,1.32426 1.57458,2.43742 2.73047,2.95898 1.16653,0.52636 2.34368,0.66016 3.60352,0.66016 1.12116,0 2.14371,-0.0952 3.17773,-0.45313 1.03036,-0.35665 2.17223,-1.10297 2.80274,-2.30859 0.33312,-0.62719 0.60887,-1.30445 0.69921,-2.16992 0.0859,-0.58789 0.11719,-1.14232 0.11719,-1.82227 v -5.70507 h 5.30664 v 5.66211 c 0,1.15139 0.0484,2.09907 0.41992,3.17382 0.44263,1.32607 1.57534,2.44079 2.73243,2.96289 1.16652,0.52636 2.34172,0.66016 3.60156,0.66016 1.12116,0 2.14566,-0.0952 3.17969,-0.45313 1.02923,-0.35626 2.16983,-1.1014 2.80078,-2.30468 0.33508,-0.63046 0.61377,-1.30997 0.70312,-2.18164 0.0849,-0.58509 0.11328,-1.13747 0.11328,-1.81446 v -0.95507 c 0.62793,0.92961 1.33455,1.8199 2.13672,2.65234 l 0.004,0.004 0.006,0.006 c 3.53861,3.63783 8.15394,5.60156 13.20117,5.60156 5.0538,0 9.65452,-1.99607 13.11133,-5.68555 l 0.006,-0.004 0.004,-0.006 c 0.75443,-0.81245 1.41666,-1.68054 2.01172,-2.58398 v 0.92774 c 0,0.72436 0.0105,1.27875 0.0527,1.78515 l 0.0117,0.12305 0.0195,0.12109 c 0.13119,0.78707 0.42071,1.46345 0.77343,2.08399 0.63375,1.13065 1.72483,1.86261 2.73829,2.22265 1.01759,0.36152 2.02832,0.46094 3.11718,0.46094 1.11029,0 2.12972,-0.0978 3.15625,-0.45313 1.02167,-0.35364 2.13357,-1.07487 2.78125,-2.22851 0.35588,-0.62541 0.65047,-1.3314 0.74219,-2.20899 0.0859,-0.58787 0.11719,-1.14232 0.11719,-1.82226 v -5.24219 c 0.16859,0.21987 0.54296,0.73923 0.67578,0.90625 l 0.38086,0.52539 0.043,0.0527 c 0.578,0.72251 1.20025,1.16133 1.88867,1.58203 l 0.082,0.0508 0.084,0.0449 c 0.96274,0.50671 2.06615,0.77149 3.14648,0.77149 1.13248,0 2.30022,-0.29718 3.29492,-0.87305 l 0.0215,-0.0117 0.0195,-0.0117 c 0.66346,-0.39808 1.05624,-0.49369 1.82812,-1.41992 l 0.0703,-0.0859 0.0664,-0.0918 c 0.0951,-0.13308 0.34718,-0.47217 0.70898,-0.94531 0.0556,-0.0727 0.26548,-0.36744 0.33399,-0.45898 v 5.12305 c 0,1.13841 0.0364,2.0462 0.33594,3.06445 l 0.0351,0.11719 0.043,0.11328 c 0.29395,0.76429 0.80079,1.55816 1.55469,2.14453 0.70532,0.54857 1.39583,0.81276 2.10547,1.02148 0.92657,0.27252 1.81129,0.33594 2.80859,0.33594 1.03179,0 1.99278,-0.0919 2.95117,-0.39453 0.94985,-0.29995 1.80039,-0.96394 2.41407,-1.74219 0.51858,0.64434 1.16279,1.18053 1.84375,1.49609 1.17406,0.54408 2.36192,0.6836 3.6289,0.6836 h 16.89649 c 1.15278,0 2.10137,-0.0491 3.17773,-0.42188 1.32426,-0.44361 2.43743,-1.57458 2.95899,-2.73046 0.52636,-1.16652 0.66015,-2.34368 0.66015,-3.60352 0,-1.12116 -0.0952,-2.14371 -0.45312,-3.17774 -0.35653,-1.02994 -1.10186,-2.17206 -2.30664,-2.80273 -0.64603,-0.34283 -1.36581,-0.60942 -2.21485,-0.69531 -0.48845,-0.0748 -0.96046,-0.0974 -1.47851,-0.10156 0.44066,-0.44469 0.83604,-0.93494 1.07617,-1.45313 0.54407,-1.17406 0.68359,-2.36388 0.68359,-3.63086 0,-1.12116 -0.0952,-2.14371 -0.45312,-3.17773 -0.23777,-0.68689 -0.72052,-1.36831 -1.32422,-1.97071 0.99993,-0.0102 1.88566,-0.0444 2.85156,-0.3789 1.32426,-0.44362 2.43743,-1.57655 2.95899,-2.73242 0.52636,-1.16653 0.66015,-2.34173 0.66015,-3.60157 0,-1.12116 -0.0952,-2.14371 -0.45312,-3.17773 -0.35653,-1.02996 -1.10185,-2.17207 -2.30664,-2.80274 -0.64603,-0.34283 -1.36581,-0.60942 -2.21485,-0.69531 -0.5878,-0.09 -1.1154,-0.12109 -1.77929,-0.12109 h -16.81055 c -1.85287,0 -3.63849,0.1731 -5.1582,1.66992 -0.16468,0.15864 -0.25745,0.33439 -0.39258,0.5 -0.64875,-0.82981 -1.53528,-1.38654 -2.36524,-1.67383 -1.03402,-0.35793 -2.05657,-0.45312 -3.17773,-0.45312 -2.22057,0 -4.57928,0.37074 -5.95313,2.55273 l 0.1875,-0.26367 c -1.2542,1.58428 -4.28092,5.57212 -7.33007,9.58984 l -7.42383,-9.74804 -0.40039,-0.39844 0.15625,0.16797 c -0.89676,-1.04623 -1.61386,-1.20615 -2.34961,-1.41602 -0.973,-0.35847 -1.97274,-0.48437 -3,-0.48437 -1.10235,0 -2.10864,0.0935 -3.12305,0.43164 -1.01441,0.33814 -2.13516,1.0206 -2.80273,2.17773 l -0.0254,0.0449 -0.0234,0.043 c -0.33509,0.62823 -0.60811,1.28894 -0.73828,2.07032 l -0.0195,0.11132 -0.01,0.11133 c -0.0456,0.50078 -0.0547,1.02492 -0.0547,1.72266 v 1.0625 c -0.67411,-0.98587 -1.44556,-1.91672 -2.32226,-2.77735 -3.58484,-3.51904 -8.13366,-5.42382 -13.06641,-5.42382 z m -154.410156,0.38281 c -1.271105,0 -2.542783,0.38594 -3.609375,1.03515 l -0.02539,0.0156 -0.02539,0.0156 c -1.062049,0.67585 -1.957306,1.6723 -2.503906,2.81446 v 0.002 l -11.496094,23.80274 c -0.002,0.004 -0.0019,0.008 -0.0039,0.0117 l -0.01367,0.0254 c -0.5640265,1.12713 -1.0253906,2.01392 -1.0253906,3.48047 0,1.31756 0.6081326,2.59494 1.3964846,3.46485 0.78672,0.8681 1.720642,1.45596 2.769531,1.96289 1.153321,0.57585 2.148333,1.02734 3.570313,1.02734 1.018886,0 2.184683,-0.24642 3.166015,-0.98242 l 0.01367,-0.0117 0.01563,-0.0117 c 0.558111,-0.42932 1.090167,-0.91761 1.535156,-1.70312 0.264772,-0.4169 0.494057,-0.82991 0.769532,-1.38086 l 0.0098,-0.0195 1.410156,-2.92969 h 8.048829 l 1.410156,2.92969 0.701172,1.40234 0.06055,0.0996 c 0.42035,0.70057 0.963071,1.23403 1.539063,1.66601 l 0.04687,0.0352 0.04687,0.0332 c 0.932156,0.64534 2.058139,0.91602 3.072266,0.91602 1.418881,0 2.468922,-0.45224 3.646484,-1.04102 0.723174,-0.36158 1.363728,-0.79901 1.962891,-1.29882 0.479761,0.52791 1.051292,0.95736 1.640625,1.23046 1.174061,0.54408 2.363875,0.6836 3.630859,0.6836 h 15.359375 c 1.228675,0 2.415987,-0.15604 3.578125,-0.75781 0.439463,-0.22318 0.80812,-0.54388 1.134766,-0.89453 0.425101,0.39462 0.889987,0.73213 1.371093,0.94921 1.166527,0.52636 2.341723,0.66016 3.601563,0.66016 1.121158,0 2.143711,-0.0952 3.177734,-0.45313 1.030356,-0.35665 2.172223,-1.10298 2.802735,-2.30859 0.334433,-0.6296 0.61395,-1.30732 0.703125,-2.17773 0.08492,-0.58517 0.113281,-1.13744 0.113281,-1.81446 v -1.82226 h 2.333984 c 2.9695,0 5.838438,-1.05804 8.427735,-2.86328 l -0.914063,1.89258 c -0.002,0.004 -0.0019,0.008 -0.0039,0.0117 l -0.01367,0.0254 c -0.564027,1.12713 -1.025391,2.01392 -1.025391,3.48047 0,1.31756 0.608133,2.59494 1.396485,3.46485 0.78672,0.8681 1.720642,1.45596 2.769531,1.96289 1.153321,0.57585 2.148333,1.02734 3.570312,1.02734 1.018887,0 2.184689,-0.24642 3.166019,-0.98242 l 0.0137,-0.0117 0.0156,-0.0117 c 0.5581,-0.42932 1.09016,-0.9176 1.53515,-1.70312 0.26477,-0.4169 0.49406,-0.82991 0.76953,-1.38086 l 0.01,-0.0195 1.41015,-2.92969 h 8.04883 l 1.41016,2.92969 0.01,0.0195 c 0.28445,0.56889 0.49842,0.99486 0.64063,1.27929 l 0.0508,0.10352 0.0605,0.0996 c 0.42035,0.70057 0.96307,1.23403 1.53906,1.66601 l 0.0469,0.0352 0.0469,0.0332 c 0.93216,0.64534 2.05814,0.91602 3.07227,0.91602 1.41887,0 2.46892,-0.45224 3.64648,-1.04102 1.04696,-0.52347 1.97314,-1.12524 2.75195,-1.99804 0.77881,-0.87281 1.38086,-2.14143 1.38086,-3.45899 0,-1.48356 -0.46996,-2.37158 -1.04297,-3.51757 l -11.51171,-23.79102 -0.008,-0.0176 c -1.11109,-2.22216 -3.59674,-3.87695 -6.0957,-3.87695 -1.27111,0 -2.54278,0.38594 -3.60938,1.03515 l -0.0254,0.0156 -0.0254,0.0156 c -1.06205,0.67585 -1.9573,1.6723 -2.5039,2.81446 v 0.002 l -4.738285,9.80859 c -0.08256,-2.01067 -0.521759,-3.94603 -1.38086,-5.69726 -0.909338,-1.85366 -2.156839,-3.44998 -3.728515,-4.64258 -2.765135,-2.13008 -5.891558,-3.35156 -9.119141,-3.35156 H 75.05698 c -1.121159,0 -2.145664,0.0952 -3.179688,0.45312 -1.030692,0.35678 -2.174307,1.10229 -2.804687,2.3086 -0.330274,0.62233 -0.601624,1.27572 -0.730469,2.04883 l -0.01758,0.11132 -0.0098,0.11133 c -0.04552,0.50066 -0.05664,1.02495 -0.05664,1.72266 v 18.66797 c -0.991431,-0.4002 -1.895957,-0.46289 -2.886718,-0.46289 H 56.765625 V 120.3457 c 0,-1.13841 -0.03646,-2.04622 -0.335937,-3.06445 l -0.02148,-0.0742 -0.02539,-0.0742 c -0.464002,-1.32061 -1.608343,-2.41119 -2.771484,-2.92969 -1.163141,-0.5185 -2.341725,-0.65429 -3.601562,-0.65429 -1.121159,0 -2.143711,0.0952 -3.177735,0.45312 -1.030692,0.35678 -2.174307,1.10229 -2.804687,2.3086 -0.330273,0.62233 -0.601624,1.27572 -0.730469,2.04883 l -0.01758,0.11132 -0.01172,0.11133 c -0.04552,0.50066 -0.05469,1.02495 -0.05469,1.72266 v 15.5332 L 34.3125,117.4434 34.3047,117.4258 c -1.111086,-2.22217 -3.596748,-3.87695 -6.095704,-3.87695 z m 227.619136,11.95703 0.28711,0.0391 c -0.0703,-0.0128 -0.13864,-0.003 -0.20703,-0.0137 -0.0307,-0.003 -0.049,-0.0228 -0.0801,-0.0254 z m 2.28321,0.71094 0.0312,0.0156 c -0.006,-0.003 -0.0139,-0.003 -0.0195,-0.006 -0.005,-0.002 -0.007,-0.007 -0.0117,-0.01 z m -75.36524,0.5 c 1.24491,0 2.20548,0.37359 3.37891,1.50586 l 0.01,0.01 0.01,0.008 c 1.05034,0.99601 1.53906,2.10166 1.53906,4.05274 0,1.96207 -0.48555,3.05242 -1.49609,4.00976 -1.16986,1.1083 -2.13944,1.48047 -3.39844,1.48047 -1.23566,0 -2.21992,-0.38171 -3.41406,-1.50586 -1.04188,-1.03106 -1.52148,-2.14716 -1.52148,-4.02734 0,-1.8911 0.47615,-2.98138 1.51562,-3.98438 l 0.01,-0.01 0.01,-0.01 c 1.17713,-1.15648 2.1266,-1.52929 3.35742,-1.52929 z m -100.935543,0.38476 h 2.333984 c 0.139839,0 0.278186,10e-4 0.695313,0.33203 l 0.02539,0.0195 0.02539,0.0195 c 0.05765,0.0437 0.05078,-0.16669 0.05078,0.42578 0,0.59246 0.0069,0.38203 -0.05078,0.42578 -0.428046,0.32472 -0.583126,0.32812 -0.703125,0.32812 h -2.376953 z m 175.449223,11.4336 -0.0957,0.0312 c 0.0144,-0.005 0.0247,-0.0187 0.0391,-0.0234 0.0192,-0.007 0.0374,-8.1e-4 0.0566,-0.008 z m -86.4375,18.65039 c -5.02238,0 -9.65206,1.87986 -13.32618,5.38476 l -0.002,0.002 c -0.94242,0.89219 -1.7724,1.8624 -2.48828,2.89648 v -0.93164 c 0,-1.13841 -0.0365,-2.04819 -0.33594,-3.06641 l -0.0215,-0.0742 -0.0254,-0.0723 c -0.46401,-1.32062 -1.60835,-2.41118 -2.77149,-2.92969 -1.16314,-0.5185 -2.34172,-0.6543 -3.60156,-0.6543 -1.12116,0 -2.14372,0.0952 -3.17773,0.45313 -1.0307,0.35678 -2.17431,1.10033 -2.80469,2.30664 -0.24301,0.45784 -0.43223,0.95125 -0.57813,1.47852 -0.33629,-0.39787 -0.69729,-0.7724 -1.07422,-1.125 l -0.11328,-0.10547 -1.1875,-0.9043 0.11719,0.0937 c -1.164,-0.98023 -2.38717,-1.4072 -3.96094,-1.88086 -1.73313,-0.56398 -3.59859,-0.83008 -5.5664,-0.83008 -3.7983,0 -7.27711,1.21267 -9.75977,3.69532 -0.26146,0.26146 -0.46161,0.5641 -0.69726,0.84374 -0.0383,-0.13555 -0.0487,-0.27255 -0.0957,-0.4082 -0.35652,-1.02996 -1.0999,-2.17207 -2.30468,-2.80273 -0.64868,-0.34439 -1.37101,-0.61041 -2.22461,-0.69531 -0.58471,-0.0889 -1.11049,-0.11915 -1.77149,-0.11915 H 96.240234 c -1.851108,0 -3.635503,0.1712 -5.154296,1.66407 -1.539374,1.47947 -1.728516,3.27845 -1.728516,5.08984 v 1.32227 c -0.695319,-0.98876 -1.496963,-1.9173 -2.404297,-2.77539 -3.60357,-3.43564 -8.098925,-5.30079 -12.943359,-5.30079 l -11.208985,-0.0625 0.05273,0.51954 c -1.007809,0.36778 -2.105861,1.08693 -2.71875,2.25976 -0.317759,0.59791 -0.58611,1.20308 -0.72461,1.96485 l -0.02344,0.13085 -0.01172,0.13282 c -0.04626,0.50881 -0.05469,1.04129 -0.05469,1.76562 v 23.72266 c 0,1.50218 0.127298,2.85558 0.90625,4.21875 l 0.01563,0.0273 0.01758,0.0274 c 0.674863,1.12476 1.772553,1.78075 2.765625,2.10742 0.993072,0.32667 1.976355,0.41601 3.048828,0.41601 h 7.808593 c 5.059731,0 9.681578,-1.93492 13.22461,-5.53906 l 0.0039,-0.006 c 0.844807,-0.85323 1.59033,-1.76856 2.246094,-2.72851 v 1.51953 c 0,1.1387 0.04129,2.0582 0.435547,3.15039 0.441309,1.30607 1.537998,2.42928 2.689453,2.96289 1.174062,0.54408 2.361923,0.68359 3.628906,0.68359 H 113.0078 c 1.15139,0 2.09909,-0.0484 3.17383,-0.41992 1.32607,-0.44263 2.4408,-1.57534 2.96289,-2.73242 0.0838,-0.18582 0.103,-0.37594 0.16797,-0.5625 0.76274,0.70471 1.6395,1.33819 2.6543,1.95508 1.08392,0.70545 2.30947,1.20449 3.69922,1.60156 l 0.0332,0.01 0.0312,0.01 c 1.45998,0.38237 2.98767,0.56836 4.55859,0.56836 3.18862,0 6.27505,-0.95834 9.01172,-2.74609 0.90331,-0.58224 1.69963,-1.31041 2.40039,-2.13282 0.0599,0.26409 0.0866,0.5187 0.1875,0.79883 0.44038,1.30782 1.53681,2.43264 2.68945,2.9668 1.17407,0.54408 2.36389,0.68359 3.63086,0.68359 1.12117,0 2.14371,-0.0952 3.17774,-0.45312 1.03036,-0.35667 2.17222,-1.10299 2.80273,-2.3086 0.3304,-0.62206 0.60062,-1.29517 0.69336,-2.15039 0.0951,-0.6095 0.12305,-1.14659 0.12305,-1.84179 v -1.375 c 0.67292,1.01123 1.44259,1.97149 2.31641,2.86914 l 0.004,0.006 0.006,0.004 c 3.60338,3.6689 8.20151,5.67774 13.19141,5.67774 5.16432,0 9.58949,-1.37773 12.66601,-4.40625 0.13909,0.42671 0.30475,0.83417 0.50782,1.21679 0.61694,1.18063 1.73768,1.93767 2.75976,2.30078 1.02543,0.36431 2.03915,0.46094 3.13867,0.46094 1.12116,0 2.14371,-0.0952 3.17774,-0.45312 1.03036,-0.35667 2.17223,-1.10298 2.80273,-2.3086 0.3304,-0.62206 0.60062,-1.29517 0.69336,-2.15039 0.0951,-0.6095 0.12305,-1.14659 0.12305,-1.84179 v -5.08594 c 2.22564,2.9426 3.55938,4.68202 7.22851,9.57422 l 0.0117,0.0137 0.0117,0.0156 c 0.59043,0.76758 1.42316,1.40286 2.33008,1.76563 1.2591,0.50364 2.15478,0.4707 3.41797,0.4707 1.12116,0 2.14371,-0.0952 3.17773,-0.45312 1.03036,-0.35667 2.17223,-1.10299 2.80274,-2.3086 0.33138,-0.62393 0.60539,-1.2973 0.69726,-2.15625 0.0942,-0.60706 0.11914,-1.14299 0.11914,-1.83593 v -23.67969 c 0,-1.13665 -0.0433,-2.0569 -0.43554,-3.14649 -0.24624,-0.77389 -0.70975,-1.59667 -1.46094,-2.21484 -0.76948,-0.65271 -1.47959,-0.90399 -2.20313,-1.10547 -0.91744,-0.2663 -1.79494,-0.33203 -2.7832,-0.33203 -1.01073,0 -1.96423,0.0984 -2.9082,0.39648 -1.2178,0.38457 -2.34959,1.33434 -2.95703,2.42774 l -0.0293,0.0527 -2.44727,4.4043 h 1.71485 v 4.71094 c -2.09293,-2.80727 -3.30654,-4.39017 -6.61524,-8.89063 l -0.0488,-0.0684 -0.0547,-0.0664 c -0.28275,-0.34228 -0.51475,-0.61535 -0.7168,-0.84375 -0.15437,-0.17451 -0.32138,-0.34287 -0.59375,-0.57618 -0.73965,-0.68658 -1.41979,-0.93675 -2.08789,-1.125 -0.9919,-0.3437 -1.92651,-0.42187 -2.9668,-0.42187 -1.05333,0 -2.02134,0.0893 -2.99414,0.39648 -1.2178,0.38457 -2.34959,1.33433 -2.95703,2.42774 l -0.0156,0.0254 -0.0137,0.0273 c -0.25288,0.47766 -0.39908,0.93114 -0.50781,1.38086 -0.30739,-0.35579 -0.63694,-0.67869 -0.98633,-0.9375 -3.41761,-2.53773 -7.2828,-3.91601 -11.29882,-3.91601 z m -29.36915,11.79883 v 4.62109 c -0.66737,-0.66401 -1.43062,-1.21828 -2.28515,-1.62305 -0.16549,-0.0784 -0.36264,-0.11878 -0.53125,-0.19336 1.07991,-0.64252 1.99343,-1.57079 2.70117,-2.60937 l 0.002,-0.006 c 0.0435,-0.0635 0.0705,-0.12673 0.11328,-0.18945 z m 41.42969,0.66015 v 1.42188 c -0.20846,-0.12692 -0.41976,-0.2433 -0.6289,-0.33203 -0.10842,-0.046 -0.21999,-0.0252 -0.32813,-0.0645 0.3104,-0.35476 0.66713,-0.64805 0.95703,-1.02539 z m -72.82617,0.0527 0.28711,0.0371 c -0.073,-0.0133 -0.14395,-0.003 -0.21484,-0.0137 -0.0278,-0.003 -0.0441,-0.0211 -0.0723,-0.0234 z m 2.28516,0.70898 0.0293,0.0156 c -0.005,-0.003 -0.0124,-0.003 -0.0176,-0.006 -0.005,-0.002 -0.007,-0.007 -0.0117,-0.01 z m 22.77343,0.10547 0.0586,0.0176 c -0.01,-0.003 -0.0177,-0.003 -0.0274,-0.006 -0.0111,-0.003 -0.0202,-0.009 -0.0312,-0.0117 z m -18.5625,0.18359 c 0.12796,1.79338 0.55147,3.49382 1.3711,5.00196 l 0.0195,0.0351 0.0195,0.0332 c 0.69726,1.2068 1.63945,2.19227 2.69531,3.0293 -0.7361,0.331 -1.40717,0.79268 -1.96289,1.32617 l -0.01,0.01 -0.008,0.01 c -0.68847,0.67248 -1.33383,1.3139 -1.83007,2.05274 -0.59958,-0.29701 -1.25399,-0.5346 -2.02539,-0.61133 -0.48609,-0.0739 -0.95648,-0.0955 -1.47266,-0.0996 0.44157,-0.44515 0.83763,-0.93611 1.07812,-1.45508 0.54408,-1.17406 0.6836,-2.36192 0.6836,-3.6289 0,-1.12116 -0.0952,-2.14567 -0.45313,-3.17969 -0.23781,-0.68701 -0.72032,-1.36825 -1.32422,-1.9707 0.99857,-0.0102 1.88336,-0.0436 2.84766,-0.37696 0.12952,-0.0432 0.24596,-0.12 0.37109,-0.17578 z m 10.7168,0.0918 c 0.17778,0.31289 0.44523,0.59025 0.80078,0.83203 -0.35555,-0.24178 -0.623,-0.51914 -0.80078,-0.83203 z m -54.398436,0.50391 h 1.097656 c 1.438092,0 2.420456,0.39923 3.529297,1.48828 l 0.01953,0.0176 0.01953,0.0195 c 1.077663,1.02094 1.494141,1.98173 1.494141,3.58203 0,1.58115 -0.416123,2.52957 -1.507812,3.55078 -1.189181,1.08367 -2.205397,1.4707 -3.513672,1.4707 h -1.138672 z m 93.718746,1.33593 c -0.18779,0.32109 -0.4113,0.64196 -0.50976,0.95703 l -0.0254,0.082 -0.0215,0.084 c -0.21008,0.84032 -0.25976,1.64635 -0.25976,2.5625 0,0.8546 0.063,1.62192 0.24804,2.41016 -0.42224,-0.79082 -0.6914,-1.63532 -0.6914,-2.70899 0,-1.5927 0.43295,-2.52047 1.25976,-3.38672 z m -55.10156,10.09766 -0.0937,0.0332 c 0.0167,-0.005 0.0283,-0.0219 0.0449,-0.0273 0.0165,-0.006 0.0323,1.2e-4 0.0488,-0.006 z" />
  </g>
</svg>
